<svg id="Strawberry1" xmlns="http://www.w3.org/2000/svg" viewBox="0 0 618.43 590.3"><defs><style>.cls-1,.cls-4{fill:#8cc63f;}.cls-1{stroke:#8cc63f;stroke-linecap:round;stroke-linejoin:round;stroke-width:0.72px;}.cls-2{fill:#c42030;stroke:#c42030;stroke-miterlimit:10;stroke-width:1.45px;}.cls-3{fill:#db314a;}.cls-5{fill:#39b54a;}.cls-6{fill:#009245;}</style></defs><title>Artboard 1</title><path id="Straw-stem" class="cls-1" d="M546.15,118.74a172.29,172.29,0,0,0-28.9-4.88c-10.36-.75-24.27-.28-31.94,1.63-18.82,4.7-47.22,17.13-58.39,22.84s-36.87,24.14-43.55,29.59-25.58,25.79-29.59,30.9S325.92,242,321.51,250.07s-10.92,17.83-10.92,17.83l26.48,26.31s13.46-29.89,17.21-37.78c4.57-9.62,15.46-27.34,22.47-35.48s19-20.77,27.89-26.34,30.77-20.47,38.67-24.41c8.16-4.07,22.95-10.77,34.64-14.44,11.84-3.72,19-5.46,24.16-6.17,5-.67,17.23-2.09,26.34-.72,6.44,1,19.47,6,22.1,4.72C553.21,151.07,549.75,122.7,546.15,118.74Z"/><path id="straw_shadow" class="cls-2" d="M414.67,151.21c12.6,11.3,49.58,44.14,57.32,56.32s42.6,66.22,47.25,89,7,45.29,3.78,69.75a120.18,120.18,0,0,1-15.53,45.56c-9.43,16.27-21.26,27.73-31.63,36.15-14.76,12-48.41,38.06-94.49,55.18-27.31,10.15-83.27,22.67-103.41,27.4s-96.43,10.66-132.06,7.23c-30.69-3-43.41-15.2-50.34-25.87-13-20-16.08-69.27-16.66-98.19-.33-16.74,1.94-78.39,6.2-115.31,5.35-46.32,33.32-99.07,45.31-118.35,12.78-20.55,44.54-57.46,75.91-71.55,28.29-12.7,67.7-14.46,91.56-11.41S385.11,124.7,414.67,151.21Z"/><path id="straw_highlight" class="cls-3" d="M387.07,149.61c12.6,11.3,49.57,44.14,57.32,56.32S487,272.14,491.64,295s7,45.29,3.77,69.75a120,120,0,0,1-15.52,45.56c-9.43,16.27-21.26,27.73-31.63,36.15-14.76,12-48.41,38.06-94.49,55.18-27.31,10.15-83.27,22.67-103.41,27.4s-96.43,10.66-132.06,7.23c-30.69-3-43.41-15.2-50.34-25.88-13-20-13.4-67.89-14-96.81-.34-16.74,3.57-78.13,6.38-115.18,3.61-47.62,20.92-88,42.45-119.85,13.56-20.05,44.54-57.47,75.91-71.55,28.29-12.7,67.7-14.46,91.55-11.41S357.51,123.09,387.07,149.61Z"/><g id="leaf"><path id="leaf1" class="cls-4" d="M268.53,135.75c-2.24-1.9-12.32-11.75-14.84-14.33s-15.58-17.5-18.67-21.19c-3-3.52-17.59-24.11-19-25.77a.31.31,0,0,1-.06-.09.1.1,0,0,1,0-.09.12.12,0,0,1,.07-.07l.14,0c2-.69,25.62-8.81,29.93-10.32,4.5-1.59,23.17-7.72,26.63-8.63s17-4.2,19.93-4.69,10-2.35,16.8-2.84,18.77-.76,24,.12S347,52.32,351.3,55.34s10.78,13.35,11.59,17.83.62,15.51,0,23.08c-.39,5-2.39,12.12-4.14,17.32-1.06,5.43-3,13-5.17,17.68-3.25,6.84-8.57,16.45-11.5,19.9s-13.67,9-18.86,9.38-14.05-1.3-19.15-2.72c-6.19-1.73-16.84-7-22.48-10.94S270.77,137.66,268.53,135.75Z"/><path id="leaf2" class="cls-5" d="M325.16,208.53c-3.32-.16-19.14-2.06-23.18-2.63s-26-5-31.34-6.17c-5.08-1.14-32.4-9.58-34.8-10.1a.49.49,0,0,1-.13,0,.17.17,0,0,1-.06-.08.14.14,0,0,1,0-.11l.1-.15c1.32-2,16.9-25.88,19.72-30.27,2.94-4.58,15.47-23.18,17.94-26.43s12.39-15.71,14.64-18.17,7.32-9.08,13.11-14.31,16.31-13.8,21.6-16.64,15.28-5.38,21.2-5.64,18.87,4.58,22.68,8.07,11.24,13.64,15.92,20.93c3.06,4.76,6.2,12.66,8.22,18.6,2.79,5.66,6.32,13.9,7.55,19.64,1.8,8.48,3.65,20.91,3.39,26.08s-6.05,17.71-10.45,21.69-13.49,8.63-19,10.9c-6.75,2.76-19.91,5.44-27.7,5.79S328.49,208.7,325.16,208.53Z"/><path id="leaf3" class="cls-5" d="M569.44,274.05c-.39,2.81-3.26,16.08-4.08,19.47s-6.41,21.69-7.87,26.1c-1.4,4.22-11,26.71-11.66,28.71a.35.35,0,0,1,0,.1l-.08,0a.14.14,0,0,1-.1,0l-.12-.09c-1.72-1.29-22-16.53-25.79-19.28C515.8,326.2,500,314,497.24,311.63S484,299.8,482,297.68s-7.64-7-11.91-12.32-11.22-15-13.39-19.73-3.71-13.44-3.51-18.48,5.51-15.64,8.94-18.59,13.1-8.41,20-11.77c4.51-2.2,11.85-4.21,17.34-5.42,5.31-1.9,13-4.22,18.24-4.77,7.77-.83,19.09-1.36,23.72-.71s15.5,6.62,18.75,10.68,6.77,12.18,8.41,17.09c2,6,3.42,17.36,3.17,24S569.83,271.24,569.44,274.05Z"/><path id="leaf4" class="cls-4" d="M485.07,303.19c-2.5,2.2-15.18,11.85-18.48,14.25s-22.17,14.53-26.8,17.37c-4.44,2.72-29.94,15.66-32,17a.3.3,0,0,1-.12.06.17.17,0,0,1-.1,0,.22.22,0,0,1-.07-.1l0-.17c-.46-2.37-5.87-30.35-6.9-35.46-1.07-5.33-5-27.41-5.5-31.47s-2-19.91-2.13-23.23-1.06-11.62-.54-19.4,2.11-21.27,3.93-27,7.23-14.5,11.3-18.8,16.74-9.84,21.91-10,17.56,2,26,4c5.5,1.29,13.26,4.78,18.84,7.64,5.95,2.12,14.21,5.58,19.09,8.86,7.19,4.83,17.17,12.47,20.58,16.36s8,16.93,7.59,22.85-3.68,15.58-6.09,21.08c-2.93,6.68-10.52,17.76-15.87,23.43S487.57,301,485.07,303.19Z"/><path id="leaf5" class="cls-6" d="M416.74,235.5c-2.49.92-14.72,4.5-17.88,5.35s-20.71,4.5-25,5.29c-4.1.76-26.84,3.13-28.77,3.5a.2.2,0,0,1-.1,0,.08.08,0,0,1-.07,0,.11.11,0,0,1,0-.09l0-.13c.34-1.9,4.31-24.35,5-28.46.73-4.29,4.1-21.9,4.9-25.07s4.18-15.45,5.06-18,2.53-9,5.15-14.64,7.67-15.27,10.66-19a48.63,48.63,0,0,1,13.82-10.81c4.27-2,15.31-2.55,19.22-1.18s12.54,6.5,18.28,10.4c3.74,2.54,8.53,7.36,11.87,11.09,3.84,3.29,9,8.24,11.72,12.08,4,5.67,9.26,14.23,10.69,18.11s1.11,14.93-.87,19.23-7.22,10.58-10.59,14c-4.09,4.15-12.93,10.25-18.55,13S419.24,234.57,416.74,235.5Z"/></g></svg>