<svg xmlns="http://www.w3.org/2000/svg" viewBox="0 0 396.26 362.81"><defs><style>.cls-1{fill:#63c7cb;}.cls-2{fill:#fff;stroke:#fff;stroke-miterlimit:10;stroke-width:0.68px;}</style></defs><title>trumpet</title><g id="trumpet"><g id="body"><path class="cls-1" d="M360.19,51.3a308.16,308.16,0,0,1,16.73,26.27c3.21,6,8.33,17.23,8.77,23.25s-1,7.42-4.9,6.42-6.17-8.46-19.4-8.31-19,1.39-33.6,7.8-32.16,17.78-32.16,17.78,4.68.51,9.36,6.24A43.35,43.35,0,0,1,313.44,146c1.5,4.61,1.28,13.84.58,18.42s-4.62,10.91-10.45,16.05C299.89,183.68,219,238,219,238l-77,52.21a18,18,0,0,1-8.32,3.41c-4.77,3.52-21.47,14.23-23.93,15.83-3.25,2.12-9.94,4.08-16,3.46a30.3,30.3,0,0,1-18.89-8,33.14,33.14,0,0,1-9.49-15.32c-1.5-5.23.09-13.39.09-13.39L31.66,298.78a8.62,8.62,0,0,1-3.34,6.66c-3.41,2.42-2.94,3.26-3.27,4.65s-3.56,4.21-5,3.05a32.36,32.36,0,0,1-6.2-6.64c-2.1-3.09-4.14-6.86-3.19-9.19s4.05-2.46,5.87-1.58c1.52.2,3.32-2.25,5.25-2.82a9.13,9.13,0,0,1,5.36-.17C31,290,67.72,265.87,67.72,265.87a17.07,17.07,0,0,1,7.49-11.55l129-88.65,76.33-53.82s33.75-22.65,48-41.85,5.9-27.89,5.9-32.65,3.76-4.81,7.48-2.84S355.92,45.63,360.19,51.3Z"/></g><rect id="inside_trumpet" class="cls-2" x="54.52" y="198.57" width="271.1" height="40.08" rx="19.9" transform="translate(-89.17 141.53) rotate(-33.56)"/><g id="keys-2" data-name="keys"><rect id="keyTub1" class="cls-1" x="161.51" y="194.65" width="14.87" height="93.62" rx="3.72" transform="translate(-105.22 133.38) rotate(-33.5)"/><rect id="keyTub2" class="cls-1" x="176.89" y="184.21" width="14.87" height="93.62" rx="3.72" transform="translate(-96.9 140.13) rotate(-33.5)"/><rect id="keyTub3" class="cls-1" x="191.87" y="174.03" width="14.87" height="93.62" rx="3.72" transform="translate(-88.79 146.71) rotate(-33.5)"/></g><path id="right" class="cls-1" d="M136.85,196.54c-.8.12-3.14,3.08-4.86.45-1.17-1.8.23-2.4,4-5.07s5.64-4.11,7-2.18-1.87,3.59-2.74,4.18c1.15,1.85,6,8.86,6,8.86l-3.48,2.16S137.27,197.16,136.85,196.54Z"/><path id="middle" class="cls-1" d="M152.56,185.86c-.8.12-3.14,3.08-4.86.46-1.17-1.8.23-2.4,4-5.07s5.64-4.11,7-2.18-1.88,3.59-2.74,4.18c1.15,1.85,6,8.86,6,8.86l-3.48,2.16S153,186.49,152.56,185.86Z"/><path id="left" class="cls-1" d="M167.69,175.58c-.8.12-3.14,3.08-4.86.46-1.17-1.8.23-2.4,4-5.07s5.64-4.11,7-2.18-1.87,3.59-2.74,4.18c1.15,1.85,6,8.86,6,8.86L173.61,184S168.11,176.21,167.69,175.58Z"/></g></svg>